<svg id="Layer_1" enable-background="new 0 0 512.001 512.001" height="512" viewBox="0 0 512.001 512.001" width="512" xmlns="http://www.w3.org/2000/svg"><g><g fill="#ffda8f"><path d="m90.001 274.997h40v200h-40z"/><path d="m170.001 322h40v152.997h-40z"/><path d="m250.001 402h40v72.997h-40z"/><path d="m330.001 246.002h40v228.996h-40z"/><path d="m410.001 82h40v392.997h-40z"/></g><g><circle cx="450.001" cy="270" r="10"/><path d="m510.464 469.672-17-27c-2.943-4.674-9.118-6.077-13.791-3.134-4.674 2.942-6.077 9.116-3.134 13.79l7.349 11.672h-23.887v-150c0-5.521-4.49-10-10-10s-10 4.479-10 10v150h-20v-373h20v133c0 5.51 4.49 10 10 10s10-4.49 10-10v-143c0-2.63-1.07-5.21-2.93-7.07s-4.44-2.93-7.07-2.93h-40c-2.63 0-5.21 1.069-7.07 2.93-1.86 1.86-2.93 4.44-2.93 7.07v383h-20v-218.998c0-5.522-4.477-10-10-10h-40c-5.523 0-10 4.478-10 10v218.998h-20v-63c0-5.522-4.477-10-10-10h-40c-5.523 0-10 4.478-10 10v63h-20v-143c0-5.522-4.477-10-10-10h-40c-5.523 0-10 4.478-10 10v143h-20v-190.003c0-5.522-4.477-10-10-10h-40c-5.523 0-10 4.478-10 10v190.003h-33v-436.886l11.672 7.349c1.655 1.043 3.498 1.54 5.319 1.539 3.321 0 6.571-1.654 8.472-4.673 2.942-4.674 1.54-10.848-3.134-13.79l-27-17c-3.256-2.051-7.4-2.051-10.656 0l-27 17c-4.674 2.942-6.077 9.116-3.134 13.79s9.118 6.076 13.791 3.134l11.672-7.349v43.886h-11.75c-5.523 0-10 4.478-10 10s4.477 10 10 10h11.75v60h-11.75c-5.523 0-10 4.478-10 10s4.477 10 10 10h11.75v60h-11.75c-5.523 0-10 4.478-10 10s4.477 10 10 10h11.75v60h-11.75c-5.523 0-10 4.478-10 10s4.477 10 10 10h11.75v60h-11.75c-5.523 0-10 4.478-10 10s4.477 10 10 10h11.75v53h-17c-5.523 0-10 4.478-10 10s4.477 10 10 10h17v17c0 5.522 4.477 10 10 10s10-4.478 10-10v-17h53v11.75c0 5.522 4.477 10 10 10s10-4.478 10-10v-11.75h60v11.75c0 5.522 4.477 10 10 10s10-4.478 10-10v-11.75h60v11.75c0 5.522 4.477 10 10 10s10-4.478 10-10v-11.75h60v11.75c0 5.522 4.477 10 10 10s10-4.478 10-10v-11.75h60v11.75c0 5.522 4.477 10 10 10s10-4.478 10-10v-11.75h43.887l-7.349 11.672c-2.942 4.674-1.54 10.848 3.134 13.79 1.655 1.043 3.498 1.539 5.319 1.539 3.321 0 6.571-1.654 8.472-4.673l17-27c2.048-3.256 2.048-7.4-.002-10.656zm-170.463-213.67h20v208.995h-20zm-80 155.998h20v52.997h-20zm-80-80h20v132.997h-20zm-80-47.003h20v180h-20z"/></g></g></svg>